<svg width="980" height="551" xmlns="http://www.w3.org/2000/svg" xmlns:xlink="http://www.w3.org/1999/xlink">
<path fill="#ff595e" d="M 162.64 315.02 Q 162.64 315.02 165.07 314.02 167.51 313.03 170.81 313.03 174.10 313.03 176.72 313.03 179.34 313.03 181.32 313.03 183.31 313.03 185.02 313.03 186.73 313.03 187.81 313.03 188.88 313.03 190.21 313.03 191.54 313.03 193.14 313.03 194.75 313.03 196.48 313.03 198.21 313.03 200.51 313.03 202.81 313.03 205.76 313.20 208.71 313.38 211.47 313.45 214.23 313.53 216.80 313.56 219.36 313.59 222.19 313.60 225.02 313.61 227.79 313.62 230.55 313.63 233.30 313.63 236.04 313.63 239.12 313.63 242.20 313.63 245.64 313.81 249.09 313.98 252.59 314.06 256.09 314.13 260.02 314.16 263.94 314.19 268.39 314.21 272.84 314.22 278.07 314.40 283.30 314.58 288.45 314.66 293.60 314.73 298.95 314.94 304.30 315.15 308.85 315.41 313.39 315.67 318.62 315.96 323.84 316.24 327.95 316.36 332.06 316.48 335.94 316.71 339.81 316.94 343.85 317.03 347.88 317.12 352.38 317.16 356.88 317.20 361.58 317.22 366.27 317.24 370.88 317.25 375.48 317.25 380.22 317.26 384.96 317.26 389.24 317.26 393.52 317.26 397.94 317.26 402.37 317.26 406.86 317.26 411.35 317.26 415.52 317.26 419.69 317.26 424.60 317.26 429.50 317.26 433.15 317.26 436.80 317.26 440.27 317.26 443.73 317.26 447.29 317.26 450.85 317.26 454.80 317.26 458.75 317.26 465.99 317.26 473.24 317.26 479.28 317.26 485.31 317.26 488.92 317.26 492.53 317.26 494.93 317.26 497.34 317.26 499.23 317.26 501.12 317.26 502.80 317.26 504.47 317.26 506.22 317.26 507.98 317.26 509.94 317.26 511.91 317.26 513.96 317.26 516.01 317.26 518.28 317.26 520.54 317.26 522.89 317.26 525.25 317.26 528.16 317.26 531.08 317.26 534.23 317.26 537.38 317.26 539.94 317.26 542.49 317.26 545.49 317.26 548.50 317.26 552.38 317.26 556.26 317.26 561.05 317.26 565.83 317.26 571.34 317.26 576.85 317.26 582.53 317.44 588.21 317.61 595.11 317.69 602.02 317.76 607.42 317.97 612.83 318.17 617.53 318.26 622.23 318.35 626.32 318.38 630.40 318.42 634.22 318.44 638.05 318.45 641.76 318.46 645.47 318.47 649.14 318.47 652.80 318.47 656.79 318.47 660.79 318.47 664.92 318.47 669.05 318.47 675.30 318.30 681.56 318.13 691.38 318.05 701.20 317.98 711.11 317.95 721.02 317.92 731.67 317.90 742.32 317.89 749.45 317.88 756.59 317.88 761.36 317.88 766.13 317.87 769.03 317.87 771.93 317.87 774.73 317.87 777.52 317.87 780.92 317.70 784.33 317.52 788.61 317.45 792.89 317.37 797.80 317.17 802.72 316.97 807.59 316.70 812.46 316.44 816.25 316.16 820.05 315.88 822.92 315.75 825.79 315.63 828.16 315.41 830.54 315.19 833.30 314.92 836.07 314.65 838.15 314.53 840.24 314.41 841.62 314.04 843.00 313.68 844.48 313.49 845.96 313.29 847.37 313.06 848.77 312.82 849.92 312.40 851.08 311.99 852.38 311.61 853.67 311.23 855.43 310.73 857.18 310.22 858.44 309.56 859.71 308.89 861.24 308.21 862.76 307.52 864.07 306.90 865.37 306.29 866.61 305.68 867.85 305.08 868.85 304.10 869.86 303.13 870.95 302.26 872.04 301.39 873.03 299.73 874.02 298.07 874.52 296.31 875.02 294.56 875.12 293.16 875.22 291.76 875.24 290.46 875.26 289.15 875.26 287.66 875.27 286.16 874.66 284.88 874.05 283.59 873.35 282.78 872.65 281.97 871.30 280.70 869.95 279.44 868.56 278.75 867.17 278.06 865.40 277.42 863.63 276.78 861.19 276.17 858.75 275.56 855.74 274.76 852.74 273.96 849.71 273.65 846.67 273.34 842.43 273.21 838.19 273.07 834.81 273.01 831.43 272.95 828.60 272.92 825.77 272.89 823.53 272.88 821.28 272.87 818.24 272.87 815.20 272.86 810.43 272.86 805.66 272.86 800.85 272.86 796.03 272.86 791.73 272.86 787.42 272.86 784.20 272.86 780.98 272.86 777.69 272.86 774.41 272.86 770.93 272.86 767.45 272.86 763.57 273.03 759.70 273.20 755.40 273.28 751.10 273.35 747.19 273.38 743.27 273.42 739.35 273.43 735.42 273.44 732.71 273.45 730.00 273.45 727.46 273.46 724.91 273.46 722.26 273.46 719.62 273.46 716.75 273.46 713.89 273.46 711.28 273.46 708.67 273.46 706.17 273.46 703.67 273.46 701.04 273.46 698.41 273.46 695.90 273.46 693.39 273.46 690.41 273.46 687.43 273.46 683.91 273.46 680.38 273.46 676.96 273.46 673.55 273.46 669.01 273.63 664.46 273.81 660.76 273.88 657.05 273.96 653.91 273.99 650.77 274.02 648.04 274.03 645.31 274.05 642.06 274.05 638.82 274.06 632.74 274.06 626.66 274.06 620.45 274.24 614.24 274.41 607.98 274.83 601.71 275.25 596.39 275.43 591.07 275.62 586.89 275.69 582.72 275.77 579.90 275.80 577.08 275.83 575.18 275.85 573.29 275.86 571.26 275.87 569.24 275.87 567.86 275.88 566.47 275.88 565.19 275.88 563.91 275.88 562.66 275.88 561.42 275.88 559.68 275.88 557.93 275.88 553.71 275.88 549.49 275.88 542.10 275.71 534.72 275.53 527.95 275.46 521.18 275.39 514.97 275.18 508.76 274.97 503.89 274.89 499.01 274.80 494.33 274.76 489.65 274.73 485.06 274.71 480.46 274.70 475.37 274.69 470.29 274.68 465.69 274.68 461.09 274.68 456.53 274.67 451.97 274.67 448.07 274.50 444.17 274.32 441.34 274.25 438.50 274.18 436.18 273.97 433.86 273.76 431.90 273.67 429.94 273.59 427.90 273.55 425.86 273.52 423.77 273.50 421.68 273.48 419.40 273.48 417.13 273.47 414.59 273.47 412.06 273.47 409.07 273.46 406.08 273.46 401.85 273.46 397.62 273.46 394.26 273.46 390.89 273.46 387.72 273.46 384.56 273.46 381.64 273.46 378.73 273.46 375.58 273.46 372.43 273.46 369.17 273.46 365.92 273.46 362.45 273.46 358.98 273.46 355.24 273.46 351.51 273.46 347.48 273.46 343.46 273.46 339.10 273.29 334.74 273.11 330.67 273.04 326.59 272.97 322.25 272.93 317.91 272.90 312.59 272.89 307.26 272.88 303.09 272.87 298.91 272.86 295.22 272.86 291.53 272.86 288.40 272.86 285.27 272.86 282.02 272.86 278.78 272.86 275.31 272.86 271.84 272.86 268.11 272.86 264.37 272.86 261.04 272.86 257.72 272.86 254.74 272.86 251.76 272.86 249.10 272.86 246.44 272.86 243.92 272.86 241.40 272.86 238.59 272.86 235.78 272.86 232.49 272.86 229.21 272.86 226.42 272.86 223.64 272.86 220.89 272.86 218.14 272.86 215.75 272.86 213.36 272.86 211.13 272.86 208.90 272.86 207.00 273.03 205.09 273.20 203.15 273.27 201.21 273.35 199.34 273.38 197.47 273.41 195.91 273.60 194.35 273.78 192.72 273.86 191.09 273.95 189.63 274.15 188.17 274.35 186.88 274.60 185.59 274.85 183.85 274.98 182.11 275.11 180.52 275.16 178.92 275.21 177.87 275.39 176.81 275.57 175.66 275.82 174.51 276.06 173.53 276.33 172.56 276.60 170.94 277.16 169.33 277.72 168.02 278.06 166.71 278.40 165.41 278.85 164.12 279.30 162.79 279.70 161.46 280.09 159.90 280.59 158.34 281.09 157.14 281.75 155.93 282.42 154.42 283.11 152.91 283.80 151.93 284.51 150.95 285.22 149.94 285.92 148.92 286.61 148.06 287.36 147.21 288.10 146.21 289.65 145.22 291.21 145.01 292.20 144.80 293.20 144.90 294.31 145.00 295.42 146.73 297.57 148.45 299.73 151.17 302.30 153.89 304.88 156.20 306.61 158.50 308.34 160.53 309.79 162.57 311.23 164.70 312.30 166.84 313.37 169.39 314.14 171.94 314.91 173.92 315.43 175.89 315.94 177.44 316.34 178.99 316.74 181.70 318.27 184.41 319.79 184.41 319.80 184.41 319.80 184.41 319.81 184.41 319.81 182.29 320.39 180.18 320.97 179.09 320.79 178.00 320.61 176.44 320.21 174.88 319.81 172.82 319.27 170.76 318.73 167.90 317.84 165.05 316.94 162.65 315.72 160.25 314.50 158.17 313.02 156.09 311.54 153.61 309.66 151.14 307.78 148.35 305.14 145.56 302.49 143.81 300.57 142.06 298.65 141.40 296.52 140.74 294.39 140.95 292.65 141.15 290.92 141.51 289.97 141.88 289.02 142.47 288.12 143.07 287.22 143.82 286.16 144.57 285.09 145.61 284.20 146.66 283.32 147.65 282.63 148.65 281.95 149.95 281.06 151.24 280.16 152.64 279.53 154.04 278.90 155.57 278.09 157.11 277.28 158.72 276.76 160.34 276.25 161.57 275.89 162.81 275.52 164.27 275.02 165.72 274.52 167.62 273.94 169.52 273.35 170.51 273.05 171.50 272.75 172.59 272.45 173.67 272.15 174.92 271.89 176.17 271.62 177.48 271.41 178.79 271.21 180.31 271.16 181.84 271.12 183.33 271.02 184.83 270.93 186.23 270.65 187.64 270.38 189.26 270.17 190.88 269.95 192.39 269.88 193.91 269.80 195.66 269.61 197.41 269.42 199.23 269.38 201.06 269.35 202.90 269.28 204.74 269.21 206.82 269.03 208.90 268.86 211.13 268.86 213.36 268.86 215.75 268.86 218.14 268.86 220.89 268.86 223.64 268.86 226.42 268.86 229.21 268.86 232.49 268.86 235.78 268.86 238.59 268.86 241.40 268.86 243.92 268.86 246.44 268.86 249.10 268.86 251.76 268.86 254.74 268.86 257.72 268.86 261.04 268.86 264.37 268.86 268.11 268.86 271.84 268.86 275.31 268.86 278.78 268.86 282.02 268.86 285.27 268.86 288.40 268.86 291.54 268.86 295.23 268.86 298.92 268.87 303.09 268.87 307.27 268.88 312.61 268.89 317.94 268.90 322.30 268.93 326.66 268.97 330.78 269.04 334.90 269.12 339.18 269.29 343.46 269.46 347.49 269.46 351.51 269.46 355.24 269.46 358.98 269.46 362.45 269.46 365.92 269.46 369.17 269.46 372.43 269.46 375.58 269.46 378.73 269.46 381.64 269.46 384.56 269.46 387.72 269.46 390.89 269.46 394.26 269.46 397.62 269.46 401.85 269.46 406.08 269.46 409.07 269.46 412.06 269.47 414.60 269.47 417.14 269.47 419.43 269.48 421.71 269.49 423.82 269.50 425.93 269.52 428.02 269.55 430.12 269.59 432.17 269.68 434.22 269.77 436.41 269.98 438.60 270.18 441.48 270.25 444.35 270.33 448.16 270.50 451.97 270.67 456.53 270.67 461.10 270.68 465.69 270.68 470.29 270.68 475.38 270.69 480.47 270.70 485.08 270.71 489.69 270.73 494.38 270.76 499.08 270.80 503.99 270.89 508.89 270.98 515.06 271.18 521.23 271.39 528.02 271.46 534.81 271.53 542.15 271.71 549.49 271.88 553.71 271.88 557.93 271.88 559.68 271.88 561.42 271.88 562.66 271.88 563.90 271.88 565.18 271.88 566.47 271.88 567.85 271.88 569.23 271.87 571.24 271.87 573.26 271.86 575.15 271.85 577.03 271.83 579.84 271.80 582.64 271.77 586.79 271.69 590.94 271.62 596.19 271.44 601.45 271.26 607.79 270.84 614.13 270.41 620.40 270.24 626.66 270.06 632.73 270.06 638.81 270.06 642.05 270.05 645.29 270.05 648.01 270.03 650.73 270.02 653.85 269.99 656.97 269.96 660.64 269.88 664.31 269.81 668.93 269.64 673.55 269.46 676.96 269.46 680.38 269.46 683.91 269.46 687.43 269.46 690.41 269.46 693.39 269.46 695.90 269.46 698.41 269.46 701.04 269.46 703.67 269.46 706.17 269.46 708.67 269.46 711.28 269.46 713.89 269.46 716.75 269.46 719.62 269.46 722.26 269.46 724.91 269.46 727.45 269.46 729.99 269.45 732.70 269.45 735.41 269.44 739.33 269.43 743.24 269.42 747.14 269.38 751.03 269.35 755.28 269.28 759.53 269.21 763.49 269.03 767.45 268.86 770.93 268.86 774.41 268.86 777.69 268.86 780.98 268.86 784.20 268.86 787.42 268.86 791.73 268.86 796.04 268.86 800.85 268.86 805.66 268.86 810.43 268.86 815.21 268.86 818.25 268.87 821.30 268.87 823.55 268.88 825.81 268.89 828.65 268.92 831.50 268.95 834.91 269.01 838.32 269.07 842.71 269.22 847.09 269.37 850.43 269.73 853.76 270.10 856.74 270.89 859.73 271.68 862.36 272.35 865.00 273.02 867.00 273.76 868.99 274.50 870.72 275.41 872.46 276.33 873.37 277.09 874.29 277.85 874.99 278.61 875.70 279.38 876.55 280.39 877.40 281.40 878.13 282.65 878.86 283.89 879.06 285.03 879.26 286.16 879.26 287.68 879.26 289.20 879.24 290.57 879.22 291.95 879.09 293.58 878.97 295.21 878.71 296.56 878.46 297.90 877.98 298.98 877.50 300.05 876.83 301.20 876.17 302.35 875.37 303.42 874.56 304.49 873.56 305.28 872.56 306.07 871.11 307.36 869.65 308.65 868.37 309.27 867.09 309.90 865.74 310.54 864.39 311.18 862.96 311.81 861.53 312.45 859.91 313.26 858.30 314.06 856.55 314.57 854.80 315.07 853.59 315.42 852.38 315.77 850.91 316.27 849.44 316.76 847.95 317.01 846.46 317.26 845.22 317.41 843.98 317.55 842.22 317.98 840.47 318.40 838.46 318.52 836.45 318.63 833.68 318.90 830.91 319.17 828.43 319.40 825.96 319.63 823.15 319.75 820.34 319.87 816.51 320.15 812.67 320.44 807.78 320.70 802.88 320.96 797.92 321.17 792.96 321.37 788.74 321.45 784.53 321.52 781.03 321.70 777.53 321.87 774.73 321.87 771.93 321.87 769.03 321.87 766.14 321.87 761.36 321.88 756.59 321.88 749.46 321.88 742.32 321.89 731.68 321.90 721.03 321.92 711.13 321.95 701.23 321.98 691.45 322.05 681.67 322.13 675.36 322.30 669.05 322.47 664.92 322.47 660.79 322.47 656.79 322.47 652.80 322.47 649.13 322.47 645.46 322.47 641.75 322.46 638.03 322.45 634.20 322.44 630.36 322.42 626.26 322.38 622.16 322.35 617.42 322.26 612.68 322.17 607.33 321.97 601.97 321.76 595.03 321.69 588.09 321.61 582.47 321.44 576.85 321.26 571.34 321.26 565.83 321.26 561.05 321.26 556.26 321.26 552.38 321.26 548.50 321.26 545.49 321.26 542.49 321.26 539.94 321.26 537.38 321.26 534.23 321.26 531.08 321.26 528.16 321.26 525.25 321.26 522.89 321.26 520.54 321.26 518.28 321.26 516.01 321.26 513.96 321.26 511.91 321.26 509.94 321.26 507.98 321.26 506.22 321.26 504.47 321.26 502.80 321.26 501.12 321.26 499.23 321.26 497.34 321.26 494.93 321.26 492.53 321.26 488.92 321.26 485.31 321.26 479.28 321.26 473.24 321.26 465.99 321.26 458.75 321.26 454.80 321.26 450.85 321.26 447.29 321.26 443.73 321.26 440.27 321.26 436.80 321.26 433.15 321.26 429.50 321.26 424.60 321.26 419.69 321.26 415.52 321.26 411.35 321.26 406.86 321.26 402.37 321.26 397.94 321.26 393.52 321.26 389.24 321.26 384.96 321.26 380.22 321.26 375.48 321.25 370.87 321.25 366.26 321.24 361.55 321.22 356.84 321.20 352.32 321.16 347.79 321.12 343.68 321.03 339.58 320.93 335.76 320.70 331.95 320.48 327.79 320.36 323.62 320.24 318.39 319.95 313.16 319.66 308.65 319.40 304.15 319.14 298.84 318.94 293.54 318.73 288.35 318.65 283.17 318.58 278.00 318.40 272.83 318.22 268.37 318.21 263.91 318.19 259.96 318.16 256.01 318.13 252.45 318.05 248.89 317.98 245.54 317.81 242.19 317.63 239.11 317.63 236.03 317.63 233.29 317.63 230.55 317.63 227.77 317.62 225.00 317.61 222.16 317.60 219.31 317.59 216.72 317.56 214.12 317.52 211.30 317.45 208.47 317.37 205.64 317.20 202.81 317.03 200.51 317.03 198.21 317.03 196.48 317.03 194.75 317.03 193.14 317.03 191.54 317.03 190.21 317.03 188.88 317.03 187.81 317.03 186.73 317.03 185.02 317.03 183.31 317.03 181.32 317.03 179.34 317.03 176.72 317.03 174.10 317.03 170.81 317.03 167.51 317.03 165.07 316.03 162.64 315.04 162.64 315.03 Z" data-drauu_index="0"></path>
</svg>